<svg width="70" height="50" viewBox="0 0 70 50" fill="none" xmlns="http://www.w3.org/2000/svg">
<rect width="70" height="50" rx="4" fill="#0060AF"/>
<path fill-rule="evenodd" clip-rule="evenodd" d="M14.3973 29.7911C14.3973 29.12 14.405 27.3264 14.3875 27.1054C14.4028 24.4364 12.3442 22.5536 11.0436 22.7004C10.1437 22.774 9.38933 23.1199 8.98453 24.115C8.60904 25.0425 8.94476 26.276 10.1926 26.5655C11.5268 26.8763 12.3062 27.135 12.87 27.4999C13.561 27.9466 14.125 28.8001 14.14 29.7921" fill="white"/>
<path fill-rule="evenodd" clip-rule="evenodd" d="M13.8394 29.7921C13.8438 28.9319 13.3345 28.1713 12.6688 27.7625C12.0784 27.4013 11.2857 27.164 10.0069 26.8582C9.61161 26.7629 9.19812 26.5511 9.07011 26.2812C8.73149 26.6029 8.66998 27.326 8.72956 27.7487C8.7988 28.2376 9.40502 29.0436 10.3178 29.0752C10.8753 29.0963 11.58 28.9621 11.918 28.8944C12.5011 28.7757 13.4235 29.1199 13.5704 29.791" fill="white"/>
<path fill-rule="evenodd" clip-rule="evenodd" d="M14.8687 18.541C13.3209 18.541 11.9841 19.5032 11.9888 21.1681C11.9936 22.5682 13.188 23.3177 13.6144 23.8531C14.2585 24.6598 14.6071 25.6147 14.6431 27.0758C14.6715 28.2386 14.67 29.3869 14.6763 29.7938H15.0178C15.012 29.368 14.9966 28.1491 15.0141 27.0398C15.0373 25.5783 15.3985 24.6598 16.0429 23.8531C16.4729 23.3177 17.6662 22.5682 17.6688 21.1681C17.6748 19.5032 16.3385 18.541 14.7922 18.541" fill="white"/>
<path fill-rule="evenodd" clip-rule="evenodd" d="M15.2616 29.7911C15.2616 29.12 15.2536 27.3264 15.2708 27.1054C15.2557 24.4364 17.313 22.5536 18.6147 22.7004C19.5146 22.774 20.268 23.1199 20.6741 24.115C21.0491 25.0425 20.7116 26.276 19.4653 26.5655C18.1302 26.8763 17.352 27.135 16.7866 27.4999C16.0965 27.9466 15.5719 28.8001 15.5558 29.7921" fill="white"/>
<path fill-rule="evenodd" clip-rule="evenodd" d="M15.8189 29.7921C15.8141 28.9319 16.3232 28.1713 16.9869 27.7625C17.5799 27.4013 18.3734 27.164 19.6511 26.8582C20.0472 26.7629 20.4602 26.5511 20.5859 26.2812C20.9262 26.6029 20.9877 27.326 20.9279 27.7487C20.8574 28.2376 20.2526 29.0436 19.3414 29.0752C18.7843 29.0963 18.0757 28.9621 17.7392 28.8944C17.1584 28.7757 16.2333 29.1199 16.0858 29.791" fill="white"/>
<path fill-rule="evenodd" clip-rule="evenodd" d="M16.296 32.5691L16.0981 31.2068L16.5762 31.1385C16.6925 31.1236 16.8342 31.1428 16.8908 31.2114C16.9535 31.2832 16.9726 31.3425 16.9847 31.4366C17.0029 31.5532 16.9672 31.6877 16.828 31.7548V31.7589C16.9833 31.7589 17.0771 31.8641 17.1045 32.0416C17.1084 32.0793 17.1203 32.1698 17.1084 32.2453C17.0768 32.4252 16.9631 32.4832 16.7709 32.5085L16.296 32.5691ZM16.6037 32.3253C16.6604 32.3176 16.7179 32.3147 16.7628 32.2877C16.8317 32.2453 16.8255 32.1549 16.8158 32.0875C16.792 31.9398 16.7511 31.8835 16.5847 31.9067L16.4801 31.9219L16.5464 32.3328L16.6037 32.3253ZM16.5037 31.6957C16.567 31.6862 16.6527 31.6789 16.6884 31.6223C16.7073 31.5845 16.7311 31.5544 16.7153 31.4703C16.6958 31.3708 16.6609 31.3088 16.5264 31.3328L16.4013 31.3518L16.4508 31.7009L16.5037 31.6957Z" fill="white"/>
<path fill-rule="evenodd" clip-rule="evenodd" d="M18.367 31.7495C18.3707 31.7749 18.3751 31.8031 18.3767 31.8285C18.4154 32.0768 18.367 32.2826 18.0708 32.3392C17.6326 32.4186 17.5488 32.1622 17.4718 31.8031L17.4307 31.6087C17.3704 31.2652 17.3444 31.005 17.7714 30.9247C18.0122 30.8835 18.1712 30.9738 18.2374 31.1996C18.2477 31.2333 18.2606 31.2666 18.2654 31.3006L18.0035 31.3516C17.9732 31.2666 17.9331 31.1149 17.8152 31.1277C17.6037 31.1518 17.6735 31.3998 17.6953 31.5036L17.774 31.8766C17.7977 31.9894 17.8447 32.1695 18.0278 32.1348C18.1764 32.1067 18.1115 31.8884 18.0983 31.7989" fill="white"/>
<path fill-rule="evenodd" clip-rule="evenodd" d="M18.7878 32.1624L18.6973 30.7526L19.0491 30.6514L19.787 31.8775L19.5099 31.9557L19.3351 31.644L19.0274 31.7312L19.0671 32.0854L18.7878 32.1624ZM19.0016 31.5035L19.224 31.4428L18.9286 30.8724L19.0016 31.5035Z" fill="white"/>
<path fill-rule="evenodd" clip-rule="evenodd" d="M10.0938 31.0961C10.2039 30.7638 10.3025 30.519 10.7229 30.6277C10.9478 30.687 11.0873 30.7804 11.0807 31.0267C11.0796 31.0815 11.0604 31.1375 11.0478 31.1916L10.7862 31.1236C10.8205 30.9874 10.8422 30.8795 10.6645 30.8279C10.459 30.7748 10.4089 31.0097 10.3806 31.1111L10.2741 31.4806C10.2403 31.5903 10.1998 31.7717 10.3806 31.8186C10.53 31.8564 10.6205 31.7183 10.6746 31.5164L10.4917 31.4705L10.555 31.2568L10.9854 31.3872L10.781 32.0995L10.583 32.0489L10.6276 31.8983H10.6219C10.5306 32.0215 10.4195 32.0344 10.3221 32.0167C9.89173 31.9071 9.93665 31.6419 10.0394 31.2876" fill="white"/>
<path fill-rule="evenodd" clip-rule="evenodd" d="M11.6958 31.6982L11.5662 32.2778L11.2744 32.2184L11.5853 30.8652L12.0827 30.971C12.3738 31.0304 12.4618 31.1524 12.4205 31.4041C12.397 31.5484 12.3215 31.7039 12.1371 31.6913L12.1352 31.689C12.2911 31.7403 12.3043 31.8145 12.2771 31.9425C12.2653 31.9971 12.1843 32.3277 12.2402 32.3811L12.2421 32.4218L11.9402 32.3474C11.9277 32.2559 11.9705 32.0911 11.9874 31.9997C12.0043 31.9189 12.0315 31.8051 11.9446 31.7624C11.8766 31.7281 11.8512 31.7298 11.7742 31.7133L11.6958 31.6982ZM11.7455 31.4886L11.942 31.5386C12.0613 31.5549 12.1276 31.4967 12.1512 31.3607C12.1724 31.236 12.1449 31.1875 12.0378 31.1633L11.8272 31.123L11.7455 31.4886Z" fill="white"/>
<path fill-rule="evenodd" clip-rule="evenodd" d="M13.5674 31.1675L13.856 31.1991L13.7317 32.1505C13.6713 32.4521 13.5476 32.5839 13.1957 32.5427C12.8376 32.4999 12.7525 32.3463 12.7741 32.0423L12.8994 31.0918L13.1902 31.1231L13.0654 32.0523C13.052 32.1532 13.0274 32.3027 13.2177 32.321C13.3866 32.3331 13.4249 32.2275 13.4441 32.0963" fill="white"/>
<path fill-rule="evenodd" clip-rule="evenodd" d="M14.1738 32.5947L14.2608 31.2344L14.815 31.257C15.0771 31.2693 15.1456 31.4709 15.1375 31.6633C15.1298 31.7803 15.0911 31.911 14.9829 31.9819C14.8942 32.0422 14.7801 32.0564 14.6744 32.0516L14.4938 32.0422L14.4577 32.6123L14.1738 32.5947ZM14.5018 31.8347L14.6487 31.8424C14.768 31.8465 14.847 31.8021 14.8573 31.6369C14.8633 31.4784 14.7995 31.4514 14.645 31.4451L14.5287 31.4413L14.5018 31.8347Z" fill="white"/>
<path fill-rule="evenodd" clip-rule="evenodd" d="M53.274 19.8559L51.0706 23.626C50.239 22.9892 49.2236 22.5208 47.9279 22.5208C44.8617 22.5208 43.616 24.6753 43.616 26.193C43.616 27.3197 44.3986 28.9817 47.1268 28.9817C48.2722 28.9817 49.9 28.2308 50.3686 27.889L48.1896 32.2629C47.1508 32.4582 46.8095 32.5793 45.9303 32.605C41.047 32.7424 39.0739 29.9144 39.0752 27.025C39.0786 23.2051 42.6812 18.5595 48.6538 18.5595C49.0196 18.5595 49.4672 18.679 49.85 18.8112L50.2369 18.3447" fill="white"/>
<path fill-rule="evenodd" clip-rule="evenodd" d="M62.3655 18.4629L62.9894 32.1647H58.346L58.3434 29.8149H55.177L54.1351 32.1647H49.0991L54.3641 22.3805L53.1769 22.3732L55.4324 18.4629H62.3655ZM58.3132 22.6546L56.5231 26.64H58.3673L58.3132 22.6546Z" fill="white"/>
<path fill-rule="evenodd" clip-rule="evenodd" d="M36.1439 18.4624C38.4434 18.4746 39.7428 19.6512 39.7428 21.3508C39.7428 22.9178 38.3724 24.3047 36.868 25.0218C38.4168 25.5587 38.5508 26.8762 38.5508 27.8082C38.5508 30.0602 36.1539 32.1643 33.0381 32.1643H26.2427L28.8933 22.5163L27.8045 22.5104L30.0303 18.4624C30.0303 18.4624 34.274 18.4503 36.1439 18.4624ZM33.8879 24.0178C34.3636 24.0178 35.2034 23.9042 35.4134 23.0365C35.6435 22.0944 34.8553 22.069 34.4772 22.069L33.1263 22.0635L32.6552 24.0178H33.8879ZM31.9779 26.4391L31.3559 28.691H32.9468C33.5725 28.691 34.4254 28.398 34.6344 27.6652C34.8408 26.9304 34.2446 26.4391 33.6211 26.4391H31.9779Z" fill="white"/>
<path fill-rule="evenodd" clip-rule="evenodd" d="M14.93 33.8482C12.5771 33.8482 10.1592 33.302 7.74446 32.2216L7.6852 32.1941L7.65686 32.1372C6.57322 29.9809 6 27.6226 6 25.3152C6 23.011 6.54971 20.7535 7.634 18.6002L7.66395 18.5429L7.72433 18.5144C9.95812 17.5169 12.361 17.0117 14.8688 17.0117C17.2047 17.0117 19.6996 17.5741 22.0824 18.6411L22.1434 18.6668L22.1717 18.7251C23.276 20.9211 23.8584 23.279 23.8584 25.5483C23.8584 27.8085 23.2992 30.0682 22.1935 32.2628L22.1645 32.3204L22.103 32.3471C19.9032 33.3287 17.4227 33.8482 14.93 33.8482ZM7.96795 31.9259C10.3136 32.9662 12.6534 33.4914 14.93 33.4914C17.344 33.4914 19.7446 32.994 21.8817 32.0511C22.9433 29.9244 23.4814 27.7357 23.4814 25.5483C23.4814 23.3518 22.9198 21.0673 21.8574 18.9358C19.5451 17.911 17.1301 17.3677 14.8688 17.3677C12.441 17.3677 10.1138 17.8531 7.94766 18.8108C6.90781 20.8979 6.37855 23.085 6.37855 25.3152C6.37855 27.5493 6.92842 29.8349 7.96795 31.9259Z" fill="white"/>
</svg>
