<svg width="70" height="50" viewBox="0 0 70 50" fill="none" xmlns="http://www.w3.org/2000/svg">
<rect width="70" height="50" rx="4" fill="white"/>
<path fill-rule="evenodd" clip-rule="evenodd" d="M11.352 29.6908L13.7277 32.6326H7.84608L11.352 29.6908ZM10.605 28.782L6.00415 32.6416L6.00226 23.1494L10.605 28.782ZM21.6751 19.224C21.6751 19.224 20.6651 18.7459 19.4917 18.8157C18.1502 18.8947 17.028 19.4092 16.3828 20.088C15.9769 20.5145 15.5281 21.0347 15.3026 21.5997C14.9757 22.4171 14.9059 23.4971 14.9059 23.4971C14.9059 23.4971 14.4368 23.0989 13.849 21.9386C13.1655 20.589 12.9785 19.7714 12.8859 18.8387C12.8035 18.0202 12.9329 17.2109 12.9329 17.2109H21.6751V19.224ZM21.6751 21.915V27.9001C21.6751 27.9001 21.1316 28.1088 20.6883 28.1088C20.245 28.1088 19.49 28.0431 18.6132 27.5611C17.7428 27.0829 17.261 26.5044 16.8875 25.9802C16.5087 25.4471 16.1959 24.708 16.1029 24.1754C16.0282 23.7493 15.9476 22.6865 16.3828 21.8227C16.619 21.3539 17.2529 20.5504 18.4732 20.5047C19.4679 20.4665 20.0195 20.7281 20.5251 21.0055C21.4872 21.5346 21.6751 21.915 21.6751 21.915ZM12.1559 27.4798L13.7327 26.1654C13.2302 25.5235 13.0974 25.2816 12.5356 24.4528C11.9604 23.6045 11.4786 22.6713 11.0666 21.5763C10.6207 20.3901 10.513 19.7242 10.5622 18.8387C10.6239 17.7121 10.8801 17.2109 10.8801 17.2109H6L6.00226 19.8411C6.00226 19.8411 9.73781 24.5224 12.1559 27.4798ZM16.6615 32.6283H21.6751V28.9726C21.6751 28.9726 20.4315 29.5431 19.6232 29.5891C19.142 29.6172 18.6749 29.6357 17.9212 29.4352C17.0835 29.2126 16.6075 28.9956 15.831 28.3552C15.2074 27.8415 14.4943 27.0829 14.4943 27.0829L12.9082 28.4054C13.6441 29.3055 14.1876 29.9607 14.354 30.1371C15.0693 30.893 15.3724 31.1708 15.8542 31.4402C16.3359 31.7102 17.945 31.6956 17.945 31.6956L16.6615 32.6283Z" fill="#E94E0F"/>
<path fill-rule="evenodd" clip-rule="evenodd" d="M59.5932 29.3766C59.5932 30.4358 59.736 32.1769 58.5498 32.6007V32.6713H63.055V32.6007C61.8696 32.1537 62.0118 30.4358 62.0118 29.3766V20.5052C62.0118 19.4466 61.8696 17.7051 63.055 17.2581V17.1875H58.5498V17.2581C59.7592 17.7051 59.5932 19.423 59.5932 20.5052V29.3766ZM43.0734 20.5052L51.2068 30.7417C52.2498 32.0827 52.9854 32.8596 54.6688 33.4241V20.2229C54.6688 18.9053 54.6688 17.9639 55.9022 17.2581V17.1875H51.7284V17.2581C52.9854 17.9639 52.9612 18.9053 52.9612 20.2229V29.1414L44.283 18.2698L43.9506 17.7991C43.785 17.611 43.6903 17.4934 43.5954 17.2111V17.1875H40.1328V17.2581C41.366 17.9639 41.366 18.9053 41.366 20.2229V29.6125C41.366 30.9299 41.366 31.871 40.1096 32.6007V32.6713H44.3067V32.6007C43.0498 31.871 43.0734 30.9299 43.0734 29.6125V20.5052ZM29.8156 23.4235V18.8114L31.404 18.6462C32.8269 18.5051 34.3442 19.3524 34.3442 20.9763C34.3442 22.9058 32.139 23.4235 30.5981 23.4235H29.8156ZM29.8156 30.7887V24.9762L31.4751 24.8822C33.5619 24.7645 35.7907 25.7531 35.7907 28.0356C35.7907 30.2711 33.8232 31.1652 31.8782 30.977L29.8156 30.7887ZM27.3966 29.3532C27.3966 30.4358 27.539 32.1537 26.353 32.6007V32.6713H30.2657C32.0441 32.6713 33.9179 32.7421 35.5774 31.9419C37.1662 31.1888 38.4231 29.6355 38.4231 27.8235C38.4231 25.5178 36.6917 24.1057 34.5576 23.6582C35.9094 23.0702 36.9287 22.1761 36.9287 20.5994C36.9287 18.5051 35.1033 17.1875 31.9735 17.1875H26.353V17.2581C27.563 17.7051 27.3966 19.423 27.3966 20.4817V29.3532Z" fill="#005B6A"/>
</svg>
