<svg width="70" height="50" viewBox="0 0 70 50" fill="none" xmlns="http://www.w3.org/2000/svg">
<rect width="70" height="50" rx="4" fill="#00529C"/>
<path fill-rule="evenodd" clip-rule="evenodd" d="M20.7515 21.6914H24.0878C25.4388 21.6914 26.446 22.2892 26.446 23.5476C26.446 24.4702 25.9791 24.9841 25.168 25.2563V25.277C26.1347 25.4768 26.6336 26.0012 26.6336 26.8919C26.6336 28.6434 25.1054 29.0101 23.8065 29.0101H20.7515V21.6914ZM22.6839 24.5854H23.2248C23.8587 24.5854 24.5139 24.4281 24.5139 23.809C24.5139 23.1387 23.8901 23.0752 23.2451 23.0752H22.6839V24.5854ZM22.6839 27.6263H23.2565C23.9625 27.6263 24.7002 27.5213 24.7002 26.7767C24.7002 25.9804 23.9419 25.9064 23.2767 25.9064H22.6839V27.6263Z" fill="white"/>
<path fill-rule="evenodd" clip-rule="evenodd" d="M29.1704 21.6914H31.54L34.3357 29.0101H32.2154L31.6754 27.4482H28.9525L28.3806 29.0101H26.4165L29.1704 21.6914ZM30.3557 23.2016H30.3339L29.3991 26.0644H31.2177L30.3557 23.2016Z" fill="white"/>
<path fill-rule="evenodd" clip-rule="evenodd" d="M34.605 21.6914H37.0679L39.5207 26.6618H39.5409L39.5103 21.6914H41.2776V29.0101H38.8767L36.34 24.0087H36.3201L36.3821 29.0101H34.605V21.6914Z" fill="white"/>
<path fill-rule="evenodd" clip-rule="evenodd" d="M41.9336 21.6914H43.8663V24.6806H43.8872L46.0689 21.6914H48.3977L45.7159 25.099L48.6056 29.0101H46.1417L43.8872 25.6865H43.8663V29.0101H41.9336V21.6914Z" fill="white"/>
<path fill-rule="evenodd" clip-rule="evenodd" d="M51.002 21.6914H54.3382C55.689 21.6914 56.6974 22.2892 56.6974 23.5476C56.6974 24.4702 56.2305 24.9841 55.4195 25.2563V25.277C56.3858 25.4768 56.8847 26.0012 56.8847 26.8919C56.8847 28.6434 55.3568 29.0101 54.0583 29.0101H51.002V21.6914ZM52.9353 24.5854H53.4753C54.1095 24.5854 54.7637 24.4281 54.7637 23.809C54.7637 23.1387 54.1409 23.0752 53.4968 23.0752H52.9353V24.5854ZM52.9353 27.6263H53.5073C54.2133 27.6263 54.9516 27.5213 54.9516 26.7767C54.9516 25.9804 54.1931 25.9064 53.5278 25.9064H52.9353V27.6263Z" fill="white"/>
<path fill-rule="evenodd" clip-rule="evenodd" d="M57.313 21.6914H60.7635C62.0519 21.6914 63.1021 22.2783 63.1021 23.5374C63.1021 24.5124 62.6447 25.1625 61.7096 25.3824V25.4031C62.3318 25.5713 62.3742 26.1266 62.738 27.018L63.445 29.0101H61.429L61.0131 27.6898C60.618 26.4314 60.3684 26.1161 59.6513 26.1161H59.2457V29.0101H57.313V21.6914ZM59.2457 24.7323H59.7553C60.3788 24.7323 61.169 24.7109 61.169 23.8827C61.169 23.2016 60.4927 23.0752 59.7553 23.0752H59.2457V24.7323Z" fill="white"/>
<mask id="mask0_473_553" style="mask-type:luminance" maskUnits="userSpaceOnUse" x="4" y="18" width="62" height="15">
<path fill-rule="evenodd" clip-rule="evenodd" d="M4 32.7057H65.9102V18H4V32.7057Z" fill="white"/>
</mask>
<g mask="url(#mask0_473_553)">
<path fill-rule="evenodd" clip-rule="evenodd" d="M63.9775 29.0101H65.9103V21.6914H63.9775V29.0101Z" fill="white"/>
<path fill-rule="evenodd" clip-rule="evenodd" d="M16.3402 18H6.22346C4.99548 18 4 19.0293 4 20.2991V20.3234V30.4072C4 31.6647 4.97713 32.6869 6.1893 32.7057H16.3348C17.5631 32.7057 18.5589 31.6765 18.5589 30.4072L18.5637 20.2991C18.5637 19.0293 17.5685 18 16.3402 18ZM7.42613 31.5274L6.87414 31.5335C6.20606 31.5335 5.66451 30.9798 5.66451 30.2965L5.66135 30.1991V20.864L5.66483 20.3614C5.68982 19.7001 6.18771 19.1678 6.83998 19.1678H7.96199C8.97866 19.1678 9.80333 20.0598 9.80333 21.1123C9.80333 21.6326 9.60119 22.1049 9.2738 22.4483L6.41104 25.379L9.09412 28.1355C9.44018 28.4952 9.64928 28.9682 9.64928 29.4862C9.64928 30.6137 8.6538 31.5274 7.42613 31.5274ZM15.6747 31.5182L10.6723 31.516C10.6723 31.516 11.2508 30.2547 11.2508 29.474C11.2508 28.5223 10.9351 27.6718 10.4414 27.1091L8.73035 25.3494L10.4768 23.5289C10.9965 23.0359 11.3419 22.1607 11.3419 21.164C11.3419 20.3748 11.1256 19.6755 10.7773 19.1678H11.9895C13.0064 19.1678 13.8311 20.0598 13.8311 21.1123C13.8311 21.6326 13.6293 22.1049 13.3019 22.4483L10.4939 25.3484L16.326 31.3487C16.1412 31.4662 15.9081 31.5182 15.6747 31.5182ZM16.8963 29.6448L12.7167 25.3471L14.7073 23.3059C15.1129 22.7949 15.3697 22.0248 15.3697 21.164C15.3697 20.3697 15.1502 19.6535 14.7988 19.1454L15.6898 19.1722C16.3579 19.1722 16.8995 19.7269 16.8995 20.4099L16.8963 29.6448Z" fill="white"/>
</g>
</svg>
