<svg width="70" height="50" viewBox="0 0 70 50" fill="none" xmlns="http://www.w3.org/2000/svg">
<rect width="70" height="50" rx="4" fill="white"/>
<path d="M25.2426 21.7646H25.2222V21.7666C25.2291 21.7659 25.2349 21.7654 25.2426 21.7646Z" fill="#168F8C"/>
<path d="M25.3711 21.5781V33.4831H28.1559V24.561C28.1559 23.8946 27.8022 21.8815 25.3711 21.5781Z" fill="#0CA49D"/>
<path d="M10.5683 31.412C10.9225 31.412 11.2119 31.3668 11.4369 31.2765C11.6615 31.1861 11.8374 31.0693 11.9645 30.9259C12.0912 30.7824 12.1784 30.6203 12.2261 30.4397C12.2736 30.2592 12.2974 30.0759 12.2974 29.89C12.2974 29.6775 12.2696 29.4862 12.214 29.316C12.1587 29.1461 12.0634 29.0028 11.9285 28.8858C11.7939 28.7689 11.6153 28.6786 11.3932 28.6148C11.1711 28.5511 10.8908 28.5192 10.5524 28.5192H8.68074V31.412H10.5683ZM8.68074 23.8492V26.7182H10.0767C10.3726 26.7182 10.6398 26.697 10.8777 26.6544C11.1155 26.6118 11.3179 26.5376 11.4843 26.4312C11.6508 26.325 11.7779 26.179 11.8651 25.993C11.9522 25.807 11.996 25.5733 11.996 25.2917C11.996 25.0155 11.9616 24.7857 11.8929 24.6024C11.8241 24.419 11.7183 24.2717 11.5756 24.16C11.4329 24.0484 11.2516 23.9688 11.0324 23.9209C10.813 23.8731 10.5524 23.8492 10.2512 23.8492H8.68074ZM10.2512 21.833C11.0495 21.833 11.729 21.9075 12.2895 22.0562C12.8498 22.205 13.3073 22.4148 13.6617 22.6857C14.0157 22.9567 14.2734 23.2862 14.4349 23.6739C14.596 24.0618 14.6768 24.4947 14.6768 24.9729C14.6768 25.2332 14.6397 25.4843 14.5659 25.726C14.4918 25.9679 14.3753 26.1935 14.2167 26.4033C14.0581 26.6133 13.8545 26.8058 13.606 26.9812C13.3574 27.1565 13.0588 27.3079 12.7099 27.4353C13.4711 27.6213 14.0343 27.9214 14.3991 28.3359C14.7639 28.7502 14.9466 29.2869 14.9466 29.9456C14.9466 30.4397 14.8513 30.8994 14.6609 31.3243C14.4706 31.7495 14.1915 32.12 13.824 32.436C13.4567 32.7521 13.0032 32.9991 12.4638 33.1772C11.9247 33.3553 11.3086 33.4441 10.616 33.4441H6V21.833H10.2512Z" fill="#0CA49D"/>
<path d="M23.0046 24.1915C22.9252 24.3191 22.8421 24.4146 22.7547 24.4784C22.6675 24.5421 22.5552 24.574 22.4177 24.574C22.2961 24.574 22.1652 24.5355 22.0251 24.4584C21.885 24.3814 21.7263 24.2951 21.5493 24.1995C21.3721 24.1038 21.1698 24.0175 20.9425 23.9404C20.7153 23.8634 20.4561 23.8249 20.1651 23.8249C19.6628 23.8249 19.2887 23.9325 19.0429 24.1477C18.7971 24.3628 18.674 24.6537 18.674 25.0203C18.674 25.2542 18.7482 25.448 18.8961 25.602C19.044 25.7561 19.2386 25.889 19.4793 26.0006C19.7198 26.1121 19.9948 26.2145 20.3041 26.3073C20.6133 26.4004 20.9292 26.504 21.2517 26.6181C21.5743 26.7324 21.8904 26.8666 22.1996 27.0205C22.5089 27.1747 22.784 27.3712 23.0245 27.6103C23.2651 27.8494 23.4594 28.1402 23.6074 28.4829C23.7553 28.8255 23.8295 29.2387 23.8295 29.722C23.8295 30.2588 23.7371 30.7609 23.552 31.2282C23.3668 31.6958 23.0984 32.1036 22.7469 32.4515C22.3951 32.7996 21.9617 33.0731 21.4463 33.2723C20.9306 33.4717 20.3449 33.5712 19.6894 33.5712C19.3298 33.5712 18.9635 33.534 18.5909 33.4597C18.2181 33.3853 17.8573 33.2803 17.5083 33.1448C17.1592 33.0093 16.8314 32.8487 16.5248 32.6628C16.2178 32.4768 15.9509 32.2696 15.7236 32.041L16.5167 30.782C16.5803 30.6916 16.6634 30.616 16.7665 30.5549C16.8696 30.4938 16.982 30.4633 17.1039 30.4633C17.2623 30.4633 17.4221 30.5137 17.5836 30.6147C17.7449 30.7156 17.9273 30.8271 18.1309 30.9494C18.3344 31.0717 18.5683 31.1831 18.8328 31.2841C19.097 31.385 19.4091 31.4355 19.7687 31.4355C20.2551 31.4355 20.6332 31.3278 20.9029 31.1128C21.1725 30.8976 21.3073 30.5562 21.3073 30.0887C21.3073 29.8177 21.2331 29.5974 21.0853 29.4272C20.9373 29.2573 20.7427 29.1164 20.5024 29.0048C20.2615 28.8933 19.9879 28.795 19.6813 28.71C19.3747 28.6252 19.06 28.5308 18.7376 28.427C18.4149 28.3235 18.1003 28.196 17.7938 28.0447C17.4869 27.8932 17.2133 27.694 16.973 27.447C16.7322 27.1999 16.5378 26.8918 16.3899 26.5225C16.2419 26.1533 16.1678 25.6977 16.1678 25.1558C16.1678 24.7202 16.255 24.2951 16.4296 23.8806C16.6042 23.4663 16.8604 23.0971 17.1988 22.773C17.5373 22.4491 17.9525 22.1899 18.4441 21.9959C18.9358 21.8021 19.4989 21.7051 20.1335 21.7051C20.4877 21.7051 20.8327 21.733 21.1686 21.7889C21.5042 21.8445 21.8229 21.927 22.1243 22.0359C22.4258 22.1448 22.7072 22.275 22.9689 22.4264C23.2307 22.5778 23.4646 22.7491 23.6708 22.9403L23.0046 24.1915Z" fill="#0CA49D"/>
<path d="M28.4612 17.2876C28.4551 17.1903 28.444 17.0945 28.4295 17C29.0526 17.6462 29.9424 18.025 30.9061 17.9639C31.367 17.9345 31.7982 17.807 32.1818 17.6037C31.8838 18.1262 31.7292 18.7391 31.77 19.3851C31.8203 20.1847 32.1608 20.896 32.6812 21.4237C32.415 21.3698 32.1377 21.3491 31.8539 21.3673C30.7263 21.4389 29.7747 22.095 29.2708 23.0229C29.0717 21.6512 28.0129 20.5849 26.689 20.3502C27.8076 19.8009 28.5446 18.6136 28.4612 17.2876Z" fill="#F9AD3C"/>
<path d="M33.2395 28.7336C33.3671 28.7336 33.4771 28.7189 33.5694 28.6895C33.6617 28.6601 33.737 28.6192 33.7955 28.5666C33.8555 28.5125 33.8993 28.4491 33.927 28.3764C33.9547 28.3022 33.9685 28.2211 33.9685 28.133C33.9685 27.9614 33.9077 27.8261 33.7862 27.7272C33.6648 27.6266 33.4825 27.5764 33.2395 27.5764H32.5243V28.7336H33.2395ZM32.5243 26.1223V27.2564H33.1149C33.2411 27.2564 33.3502 27.2425 33.4425 27.2146C33.5363 27.1868 33.6132 27.1482 33.6732 27.0987C33.7347 27.0492 33.7801 26.9897 33.8093 26.9201C33.8386 26.849 33.8532 26.7717 33.8532 26.6882C33.8532 26.4919 33.7947 26.3489 33.6778 26.2592C33.5609 26.1679 33.3794 26.1223 33.1333 26.1223H32.5243ZM33.1333 25.7676C33.3364 25.7676 33.511 25.7876 33.6571 25.8279C33.8047 25.868 33.9255 25.9253 34.0193 25.9995C34.1146 26.0736 34.1846 26.1649 34.2292 26.2731C34.2738 26.3798 34.2961 26.5004 34.2961 26.6349C34.2961 26.7168 34.283 26.7956 34.2569 26.8714C34.2322 26.9456 34.1946 27.0152 34.1438 27.0801C34.0931 27.1451 34.0285 27.2038 33.95 27.2564C33.8731 27.3074 33.7824 27.3492 33.6778 27.3816C33.9209 27.428 34.1031 27.5153 34.2246 27.6436C34.3476 27.7704 34.4091 27.9374 34.4091 28.1445C34.4091 28.2852 34.383 28.4135 34.3307 28.5295C34.28 28.6454 34.2046 28.7452 34.1046 28.8287C34.0062 28.9121 33.8847 28.977 33.7401 29.0234C33.5956 29.0683 33.431 29.0907 33.2464 29.0907H32.0791V25.7676H33.1333Z" fill="#0CA49D"/>
<path d="M36.7723 27.857L36.2532 26.505C36.2379 26.4648 36.2217 26.4184 36.2048 26.3659C36.1879 26.3118 36.1717 26.2546 36.1564 26.1943C36.1241 26.3195 36.091 26.4239 36.0572 26.5073L35.5381 27.857H36.7723ZM37.7043 29.0907H37.3583C37.3183 29.0907 37.286 29.0807 37.2614 29.0606C37.2368 29.0404 37.2184 29.015 37.2061 28.984L36.8969 28.1817H35.4135L35.1044 28.984C35.0952 29.0119 35.0775 29.0366 35.0513 29.0582C35.0252 29.0799 34.9929 29.0907 34.9544 29.0907H34.6084L35.9303 25.7676H36.3825L37.7043 29.0907Z" fill="#0CA49D"/>
<path d="M40.818 25.7676V29.0907H40.5942C40.5588 29.0907 40.5289 29.0845 40.5042 29.0721C40.4812 29.0598 40.4581 29.0389 40.435 29.0095L38.5226 26.505C38.5256 26.5436 38.5279 26.5816 38.5295 26.6186C38.531 26.6557 38.5318 26.6906 38.5318 26.723V29.0907H38.1396V25.7676H38.3703C38.3903 25.7676 38.4072 25.7691 38.4211 25.7722C38.4349 25.7737 38.4472 25.7776 38.4579 25.7838C38.4687 25.7884 38.4795 25.7962 38.4903 25.8069C38.5011 25.8163 38.5126 25.8287 38.5249 25.8441L40.4373 28.3463C40.4342 28.3061 40.4311 28.2674 40.4281 28.2304C40.4265 28.1917 40.4258 28.1554 40.4258 28.1214V25.7676H40.818Z" fill="#0CA49D"/>
<path d="M42.1084 27.2239H42.2768C42.3352 27.2239 42.3821 27.2169 42.4175 27.203C42.4529 27.1875 42.4851 27.1621 42.5144 27.1265L43.6148 25.8743C43.6456 25.834 43.6778 25.8062 43.7117 25.7907C43.7455 25.7753 43.7871 25.7676 43.8363 25.7676H44.2146L42.955 27.1984C42.9243 27.2355 42.8942 27.2664 42.8651 27.2912C42.8374 27.3143 42.8074 27.3337 42.7751 27.3492C42.8166 27.363 42.8543 27.3839 42.8881 27.4118C42.922 27.438 42.955 27.4728 42.9873 27.5161L44.3023 29.0907H43.9147C43.8855 29.0907 43.8602 29.0891 43.8386 29.086C43.8186 29.0814 43.8009 29.0753 43.7856 29.0675C43.7702 29.0582 43.7563 29.0482 43.744 29.0373C43.7332 29.025 43.7225 29.0111 43.7117 28.9956L42.572 27.6761C42.5413 27.6375 42.5083 27.6104 42.4728 27.5949C42.4375 27.5779 42.3836 27.5695 42.3113 27.5695H42.1084V29.0907H41.6631V25.7676H42.1084V27.2239Z" fill="#0CA49D"/>
<path d="M47.5893 26.287C47.5755 26.3103 47.5601 26.328 47.5432 26.3404C47.5278 26.3512 47.5086 26.3567 47.4855 26.3567C47.4594 26.3567 47.4286 26.3435 47.3932 26.3172C47.3578 26.2909 47.3133 26.2623 47.2594 26.2314C47.2072 26.1989 47.1433 26.1696 47.0679 26.1433C46.9941 26.1169 46.9041 26.1038 46.7981 26.1038C46.6981 26.1038 46.6097 26.1177 46.5328 26.1456C46.4574 26.1719 46.3935 26.2082 46.3413 26.2546C46.2905 26.3009 46.2521 26.3559 46.2259 26.4193C46.1998 26.4811 46.1867 26.5483 46.1867 26.6209C46.1867 26.7137 46.209 26.791 46.2536 26.8529C46.2997 26.9132 46.3597 26.9649 46.4336 27.0082C46.5089 27.0516 46.5935 27.0894 46.6873 27.1218C46.7827 27.1528 46.8796 27.1852 46.978 27.2193C47.0779 27.2533 47.1748 27.2919 47.2686 27.3352C47.364 27.377 47.4486 27.4303 47.5224 27.4952C47.5978 27.5601 47.6578 27.6398 47.7024 27.7341C47.7485 27.8284 47.7715 27.9444 47.7715 28.082C47.7715 28.2273 47.747 28.3641 47.6977 28.4924C47.6486 28.6192 47.5763 28.7297 47.4809 28.8241C47.3871 28.9184 47.2709 28.9926 47.1326 29.0467C46.9956 29.1007 46.8395 29.1278 46.6642 29.1278C46.4489 29.1278 46.2536 29.0892 46.0782 29.0119C45.9029 28.9331 45.753 28.8271 45.6284 28.6942L45.7576 28.4808C45.7699 28.4638 45.7845 28.4499 45.8014 28.439C45.8198 28.4267 45.8399 28.4205 45.8614 28.4205C45.8814 28.4205 45.9037 28.4291 45.9283 28.4461C45.9545 28.4615 45.9837 28.4816 46.016 28.5064C46.0483 28.5311 46.0852 28.5581 46.1267 28.5875C46.1683 28.6169 46.2151 28.6439 46.2675 28.6687C46.3212 28.6934 46.382 28.7143 46.4497 28.7313C46.5174 28.7467 46.5935 28.7544 46.6781 28.7544C46.7842 28.7544 46.8788 28.7398 46.9619 28.7104C47.0449 28.6811 47.1149 28.64 47.1717 28.5875C47.2302 28.5334 47.2748 28.4692 47.3056 28.395C47.3363 28.3208 47.3517 28.2381 47.3517 28.1469C47.3517 28.0464 47.3286 27.9645 47.2825 27.9011C47.2379 27.8361 47.1787 27.782 47.1049 27.7388C47.0311 27.6955 46.9465 27.6592 46.8511 27.6298C46.7557 27.5989 46.6588 27.5679 46.5604 27.537C46.462 27.5045 46.3651 27.4674 46.2698 27.4257C46.1744 27.3839 46.0898 27.3299 46.016 27.2633C45.9422 27.1969 45.8822 27.1142 45.8361 27.0153C45.7914 26.9147 45.7692 26.791 45.7692 26.6442C45.7692 26.5266 45.7914 26.413 45.8361 26.3033C45.8822 26.1935 45.9483 26.0961 46.0344 26.0111C46.1221 25.926 46.229 25.858 46.3551 25.807C46.4827 25.756 46.6289 25.7305 46.7934 25.7305C46.978 25.7305 47.1456 25.7599 47.2964 25.8186C47.4487 25.8773 47.5824 25.9623 47.6977 26.0737L47.5893 26.287Z" fill="#0CA49D"/>
<path d="M49.5771 27.7665V29.0907H49.1296V27.7665L47.9185 25.7676H48.3106C48.3506 25.7676 48.3821 25.7776 48.4052 25.7977C48.4283 25.8163 48.4483 25.841 48.4652 25.8719L49.2219 27.1636C49.2495 27.2177 49.2749 27.2687 49.298 27.3167C49.3211 27.363 49.341 27.4102 49.3579 27.4581C49.3749 27.4102 49.3941 27.363 49.4156 27.3167C49.4372 27.2687 49.4611 27.2177 49.4872 27.1636L50.2416 25.8719C50.2554 25.8457 50.2746 25.8216 50.2992 25.8C50.3239 25.7784 50.3553 25.7676 50.3938 25.7676H50.7883L49.5771 27.7665Z" fill="#0CA49D"/>
<path d="M52.6464 27.857L52.1273 26.505C52.1119 26.4648 52.0958 26.4184 52.0789 26.3659C52.062 26.3118 52.0458 26.2546 52.0304 26.1943C51.9981 26.3195 51.9651 26.4239 51.9312 26.5073L51.4121 27.857H52.6464ZM53.5784 29.0907H53.2323C53.1923 29.0907 53.1601 29.0807 53.1354 29.0606C53.1108 29.0404 53.0924 29.015 53.0801 28.984L52.7709 28.1817H51.2876L50.9784 28.984C50.9692 29.0119 50.9515 29.0366 50.9253 29.0582C50.8992 29.0799 50.867 29.0907 50.8284 29.0907H50.4824L51.8043 25.7676H52.2565L53.5784 29.0907Z" fill="#0CA49D"/>
<path d="M54.9291 27.3769C55.0582 27.3769 55.172 27.3615 55.2705 27.3305C55.3704 27.2981 55.4535 27.2533 55.5196 27.1961C55.5872 27.1373 55.638 27.0678 55.6718 26.9874C55.7057 26.9069 55.7226 26.8181 55.7226 26.7207C55.7226 26.5228 55.658 26.3735 55.5289 26.2731C55.3996 26.1726 55.2059 26.1223 54.9475 26.1223H54.4584V27.3769H54.9291ZM56.4563 29.0907H56.0594C55.9779 29.0907 55.9179 29.059 55.8795 28.9956L55.0213 27.8083C54.9951 27.7712 54.9667 27.7449 54.936 27.7295C54.9067 27.7125 54.8606 27.7039 54.7975 27.7039H54.4584V29.0907H54.0132V25.7676H54.9475C55.1566 25.7676 55.3373 25.7892 55.4896 25.8325C55.6419 25.8743 55.7672 25.9353 55.8657 26.0157C55.9656 26.0961 56.0395 26.1935 56.0871 26.3079C56.1348 26.4207 56.1586 26.5475 56.1586 26.6882C56.1586 26.8057 56.1402 26.9155 56.1032 27.0175C56.0663 27.1195 56.0125 27.2115 55.9418 27.2935C55.8726 27.3738 55.7872 27.4427 55.6857 27.4998C55.5857 27.5571 55.4719 27.6004 55.3443 27.6297C55.4012 27.6622 55.4504 27.7094 55.4919 27.7712L56.4563 29.0907Z" fill="#0CA49D"/>
<path d="M57.3533 29.0907H56.9058V25.7676H57.3533V29.0907Z" fill="#0CA49D"/>
<path d="M59.9545 27.857L59.4354 26.505C59.42 26.4648 59.4039 26.4184 59.387 26.3659C59.3701 26.3118 59.3539 26.2546 59.3385 26.1943C59.3062 26.3195 59.2732 26.4239 59.2393 26.5073L58.7202 27.857H59.9545ZM60.8865 29.0907H60.5405C60.5004 29.0907 60.4682 29.0807 60.4435 29.0606C60.4189 29.0404 60.4005 29.015 60.3882 28.984L60.079 28.1817H58.5957L58.2865 28.984C58.2773 29.0119 58.2596 29.0366 58.2334 29.0582C58.2073 29.0799 58.175 29.0907 58.1365 29.0907H57.7905L59.1124 25.7676H59.5646L60.8865 29.0907Z" fill="#0CA49D"/>
<path d="M64.0001 25.7676V29.0907H63.5526V27.5787H61.7693V29.0907H61.3218V25.7676H61.7693V27.2494H63.5526V25.7676H64.0001Z" fill="#0CA49D"/>
<path d="M32.5266 33.4706H32.0791V30.1475H32.5266V33.4706Z" fill="#0CA49D"/>
<path d="M36.0504 30.1475V33.4706H35.8267C35.7913 33.4706 35.7613 33.4645 35.7367 33.4521C35.7136 33.4397 35.6906 33.4188 35.6675 33.3895L33.755 30.885C33.7581 30.9236 33.7604 30.9614 33.7619 30.9986C33.7635 31.0357 33.7642 31.0704 33.7642 31.1029V33.4706H33.3721V30.1475H33.6027C33.6228 30.1475 33.6397 30.1491 33.6535 30.1522C33.6673 30.1537 33.6796 30.1575 33.6904 30.1638C33.7012 30.1684 33.712 30.1761 33.7227 30.1869C33.7335 30.1962 33.745 30.2085 33.7573 30.224L35.6698 32.7262C35.6668 32.686 35.6637 32.6474 35.6606 32.6103C35.6591 32.5716 35.6583 32.5353 35.6583 32.5013V30.1475H36.0504Z" fill="#0CA49D"/>
<path d="M39.7613 31.8103C39.7613 32.0591 39.722 32.2856 39.6436 32.4897C39.5651 32.6938 39.4544 32.8685 39.3113 33.0138C39.1684 33.1591 38.9961 33.272 38.7946 33.3524C38.5947 33.4312 38.3732 33.4706 38.1302 33.4706H36.896V30.1475H38.1302C38.3732 30.1475 38.5947 30.1877 38.7946 30.2681C38.9961 30.3469 39.1684 30.4597 39.3113 30.6067C39.4544 30.752 39.5651 30.9267 39.6436 31.1307C39.722 31.3348 39.7613 31.5614 39.7613 31.8103ZM39.3021 31.8103C39.3021 31.6062 39.2745 31.4237 39.2191 31.263C39.1638 31.1021 39.0853 30.9661 38.9838 30.8548C38.8823 30.7435 38.7593 30.6584 38.6147 30.5997C38.4701 30.541 38.3087 30.5116 38.1302 30.5116H37.3435V33.1065H38.1302C38.3087 33.1065 38.4701 33.0772 38.6147 33.0184C38.7593 32.9597 38.8823 32.8754 38.9838 32.7656C39.0853 32.6543 39.1638 32.5183 39.2191 32.3575C39.2745 32.1967 39.3021 32.0143 39.3021 31.8103Z" fill="#0CA49D"/>
<path d="M43.4605 31.8102C43.4605 32.0591 43.4213 32.2878 43.3428 32.4966C43.2644 32.7038 43.1536 32.8823 43.0106 33.0323C42.8676 33.1822 42.6953 33.299 42.4939 33.3824C42.2939 33.4644 42.0725 33.5054 41.8295 33.5054C41.5864 33.5054 41.3649 33.4644 41.165 33.3824C40.9651 33.299 40.7936 33.1822 40.6506 33.0323C40.5075 32.8823 40.3968 32.7038 40.3184 32.4966C40.2399 32.2878 40.2007 32.0591 40.2007 31.8102C40.2007 31.5613 40.2399 31.3332 40.3184 31.126C40.3968 30.9173 40.5075 30.7381 40.6506 30.588C40.7936 30.4365 40.9651 30.3191 41.165 30.2356C41.3649 30.1521 41.5864 30.1104 41.8295 30.1104C42.0725 30.1104 42.2939 30.1521 42.4939 30.2356C42.6953 30.3191 42.8676 30.4365 43.0106 30.588C43.1536 30.7381 43.2644 30.9173 43.3428 31.126C43.4213 31.3332 43.4605 31.5613 43.4605 31.8102ZM43.0014 31.8102C43.0014 31.6061 42.9737 31.4229 42.9184 31.2606C42.863 31.0982 42.7845 30.9614 42.683 30.8501C42.5815 30.7372 42.4584 30.6507 42.3139 30.5904C42.1693 30.53 42.0078 30.4999 41.8295 30.4999C41.6526 30.4999 41.4919 30.53 41.3473 30.5904C41.2027 30.6507 41.0789 30.7372 40.9759 30.8501C40.8744 30.9614 40.7959 31.0982 40.7405 31.2606C40.6852 31.4229 40.6575 31.6061 40.6575 31.8102C40.6575 32.0142 40.6852 32.1975 40.7405 32.3598C40.7959 32.5205 40.8744 32.6574 40.9759 32.7702C41.0789 32.8815 41.2027 32.9674 41.3473 33.0276C41.4919 33.0864 41.6526 33.1158 41.8295 33.1158C42.0078 33.1158 42.1693 33.0864 42.3139 33.0276C42.4584 32.9674 42.5815 32.8815 42.683 32.7702C42.7845 32.6574 42.863 32.5205 42.9184 32.3598C42.9737 32.1975 43.0014 32.0142 43.0014 31.8102Z" fill="#0CA49D"/>
<path d="M46.7789 30.1475V33.4706H46.5552C46.5198 33.4706 46.4898 33.4645 46.4653 33.4521C46.4421 33.4397 46.4191 33.4188 46.396 33.3895L44.4835 30.885C44.4866 30.9236 44.4889 30.9614 44.4904 30.9986C44.492 31.0357 44.4927 31.0704 44.4927 31.1029V33.4706H44.1006V30.1475H44.3313C44.3513 30.1475 44.3682 30.1491 44.382 30.1522C44.3958 30.1537 44.4081 30.1575 44.419 30.1638C44.4297 30.1684 44.4405 30.1761 44.4513 30.1869C44.462 30.1962 44.4735 30.2085 44.4858 30.224L46.3983 32.7262C46.3953 32.686 46.3922 32.6474 46.3891 32.6103C46.3876 32.5716 46.3868 32.5353 46.3868 32.5013V30.1475H46.7789Z" fill="#0CA49D"/>
<path d="M49.6634 33.1042L49.6611 33.4706H47.624V30.1475H49.6611V30.5139H48.0716V31.6177H49.3589V31.9703H48.0716V33.1042H49.6634Z" fill="#0CA49D"/>
<path d="M51.978 30.6669C51.9642 30.6901 51.9488 30.7079 51.9318 30.7202C51.9165 30.731 51.8973 30.7364 51.8742 30.7364C51.848 30.7364 51.8173 30.7234 51.7819 30.697C51.7465 30.6707 51.702 30.6421 51.6481 30.6112C51.5959 30.5787 51.532 30.5494 51.4566 30.5231C51.3828 30.4968 51.2928 30.4837 51.1867 30.4837C51.0868 30.4837 50.9983 30.4976 50.9215 30.5254C50.8461 30.5517 50.7822 30.588 50.7299 30.6344C50.6792 30.6808 50.6407 30.7356 50.6146 30.799C50.5885 30.8609 50.5754 30.9282 50.5754 31.0008C50.5754 31.0936 50.5977 31.1709 50.6422 31.2327C50.6884 31.293 50.7484 31.3448 50.8222 31.3881C50.8975 31.4314 50.9821 31.4693 51.0759 31.5017C51.1713 31.5326 51.2683 31.5651 51.3667 31.5991C51.4666 31.6332 51.5635 31.6718 51.6573 31.7151C51.7527 31.7568 51.8372 31.8102 51.9111 31.8751C51.9864 31.94 52.0465 32.0196 52.091 32.1139C52.1372 32.2082 52.1602 32.3242 52.1602 32.4618C52.1602 32.6072 52.1357 32.7439 52.0864 32.8723C52.0372 32.9991 51.9649 33.1096 51.8696 33.2039C51.7758 33.2982 51.6596 33.3724 51.5213 33.4265C51.3843 33.4806 51.2282 33.5077 51.0529 33.5077C50.8376 33.5077 50.6422 33.4691 50.4669 33.3918C50.2916 33.3129 50.1416 33.207 50.0171 33.074L50.1462 32.8607C50.1586 32.8437 50.1732 32.8298 50.1901 32.8189C50.2085 32.8065 50.2285 32.8004 50.2501 32.8004C50.2701 32.8004 50.2924 32.8089 50.317 32.8259C50.3432 32.8414 50.3723 32.8615 50.4046 32.8861C50.437 32.9109 50.4738 32.938 50.5154 32.9674C50.5569 32.9967 50.6038 33.0238 50.6561 33.0485C50.7099 33.0732 50.7707 33.0942 50.8384 33.1111C50.906 33.1266 50.9821 33.1343 51.0667 33.1343C51.1729 33.1343 51.2675 33.1196 51.3505 33.0902C51.4336 33.0609 51.5035 33.0199 51.5604 32.9674C51.6189 32.9132 51.6635 32.8491 51.6943 32.7748C51.725 32.7007 51.7404 32.6179 51.7404 32.5268C51.7404 32.4262 51.7173 32.3443 51.6711 32.2809C51.6266 32.216 51.5673 32.1619 51.4935 32.1186C51.4197 32.0753 51.3351 32.0389 51.2397 32.0096C51.1444 31.9787 51.0475 31.9478 50.9491 31.9169C50.8507 31.8844 50.7538 31.8472 50.6584 31.8056C50.563 31.7638 50.4784 31.7097 50.4046 31.6432C50.3309 31.5767 50.2709 31.494 50.2247 31.395C50.1801 31.2946 50.1578 31.1709 50.1578 31.024C50.1578 30.9065 50.1801 30.7929 50.2247 30.6831C50.2709 30.5734 50.337 30.476 50.4231 30.3909C50.5108 30.3059 50.6177 30.2379 50.7438 30.1868C50.8714 30.1358 51.0176 30.1104 51.1821 30.1104C51.3667 30.1104 51.5343 30.1397 51.6851 30.1984C51.8372 30.2572 51.9711 30.3422 52.0864 30.4535L51.978 30.6669Z" fill="#0CA49D"/>
<path d="M53.2396 33.4706H52.792V30.1475H53.2396V33.4706Z" fill="#0CA49D"/>
<path d="M55.8412 32.237L55.3221 30.885C55.3068 30.8447 55.2905 30.7984 55.2736 30.7458C55.2567 30.6917 55.2406 30.6345 55.2252 30.5742C55.1929 30.6994 55.1599 30.8037 55.126 30.8873L54.6069 32.237H55.8412ZM56.7732 33.4706H56.4272C56.3871 33.4706 56.3549 33.4606 56.3303 33.4404C56.3056 33.4204 56.2872 33.3949 56.2749 33.364L55.9657 32.5615H54.4824L54.1732 33.364C54.164 33.3918 54.1463 33.4165 54.1202 33.4381C54.094 33.4599 54.0617 33.4706 54.0233 33.4706H53.6772L54.9991 30.1475H55.4513L56.7732 33.4706Z" fill="#0CA49D"/>
</svg>
