<svg width="70" height="50" viewBox="0 0 70 50" fill="none" xmlns="http://www.w3.org/2000/svg">
<rect width="70" height="50" rx="4" fill="white"/>
<path fill-rule="evenodd" clip-rule="evenodd" d="M11.2866 19.1476C11.9505 19.0394 12.6316 19.052 13.2986 19.1186C13.917 19.2463 14.5409 19.389 15.1084 19.6751C16.2566 20.2229 17.234 21.111 17.8853 22.2043C18.4253 23.2146 18.7968 24.348 18.7412 25.5056C18.7569 27.8821 17.2512 30.1464 15.1185 31.1567C13.736 31.8143 12.1276 31.9044 10.6502 31.5439C9.65087 31.2367 8.68682 30.7397 7.95868 29.9763C7.26503 29.3328 6.74147 28.513 6.40914 27.6305C5.97571 26.5449 5.93652 25.3379 6.12071 24.1944C6.45774 22.4959 7.50722 20.9385 8.99249 20.0356C9.68379 19.5802 10.4785 19.3098 11.2866 19.1476ZM10.3994 22.1973C9.89933 22.2482 9.35303 22.4238 9.07636 22.8752C8.77069 23.3077 8.7388 23.8485 8.7085 24.3624C8.70602 24.4045 8.70354 24.4465 8.70092 24.4883C8.69469 24.6179 8.68312 24.7473 8.67155 24.8768L8.67155 24.8768C8.6482 25.138 8.62484 25.3993 8.64528 25.6624C8.66051 25.84 8.67126 26.0183 8.68201 26.1965V26.1965C8.70888 26.6419 8.73576 27.0875 8.8326 27.5247C8.95252 28.0757 9.44865 28.5028 9.99574 28.6031C11.0153 28.787 12.054 28.7708 13.0865 28.7547C13.181 28.7533 13.2755 28.7518 13.3699 28.7505C13.7924 28.727 14.2148 28.6839 14.6326 28.6172C15.2581 28.5357 15.8106 28.0263 15.9133 27.3992C16.0928 26.6304 16.1249 25.8372 16.0716 25.0526C15.9713 24.5494 15.6155 24.0956 15.1319 23.9114C14.914 23.8061 14.6723 23.8068 14.4353 23.8074C14.3935 23.8075 14.3518 23.8076 14.3105 23.8072C13.8442 23.8077 13.3779 23.8075 12.9117 23.8072H12.9116C12.0957 23.8068 11.2799 23.8063 10.4644 23.8103C10.3707 23.812 10.2832 23.78 10.1965 23.7482C10.1643 23.7364 10.1322 23.7247 10.1 23.7147C10.0976 23.5391 10.1039 23.2765 10.3398 23.2718C10.9541 23.258 11.569 23.2621 12.1838 23.2661H12.1839C12.9936 23.2715 13.8033 23.2769 14.6114 23.2413C14.5237 22.8337 14.2752 22.4081 13.8472 22.2952C13.4608 22.1918 13.0611 22.1393 12.6637 22.1024C12.5504 22.101 12.4369 22.0989 12.3233 22.0967H12.3233C11.6795 22.0844 11.0329 22.072 10.3994 22.1973ZM14.776 25.6208C14.5699 25.5652 14.323 25.6467 14.2509 25.8591C14.2056 26.1036 14.2782 26.3392 14.3502 26.5732C14.3805 26.6715 14.4106 26.7696 14.432 26.8678C14.4555 26.8816 14.4907 26.9019 14.5259 26.9223C14.5612 26.9427 14.5965 26.9631 14.6201 26.9768C14.7008 26.9298 14.7831 26.8874 14.8685 26.8506C14.8777 26.6438 14.9276 26.4448 14.9774 26.2459C14.9995 26.1577 15.0216 26.0695 15.0402 25.9806C15.0018 25.834 14.9054 25.7 14.776 25.6208Z" fill="#01ACD7"/>
<path fill-rule="evenodd" clip-rule="evenodd" d="M26.7936 21.1005C26.1893 20.8638 25.5184 20.8904 24.8851 20.9688C23.515 21.1804 22.3127 22.226 21.9067 23.5514C21.7225 24.0765 21.7264 24.6432 21.775 25.1911C21.9388 26.5925 22.993 27.823 24.331 28.2517C25.2793 28.5386 26.3735 28.548 27.249 28.0346C27.3633 27.9714 27.4672 27.8932 27.571 27.8151L27.5711 27.8151L27.5711 27.8151L27.5711 27.8151L27.5711 27.8151C27.668 27.7421 27.765 27.6692 27.8705 27.6083L27.8721 27.6811C27.8851 28.2588 27.8998 28.9121 27.4614 29.3483C27.1675 29.7072 26.7231 29.8961 26.274 29.9651C25.3028 30.143 24.2761 29.8115 23.5542 29.1468C23.3938 29.3103 23.2256 29.4664 23.0575 29.6225C22.7855 29.8752 22.5136 30.1277 22.2743 30.4111C23.0299 31.1259 23.9869 31.6416 25.0246 31.7788C26.0388 31.9065 27.1298 31.8446 28.0336 31.3234C28.8001 30.8978 29.4036 30.1712 29.6403 29.324C29.7872 28.9018 29.7852 28.4508 29.7833 28.0095V28.0095L29.783 27.9351C29.7822 25.5986 29.7822 23.263 29.783 20.9265C29.4157 20.9219 29.0484 20.9221 28.6812 20.9224C28.4159 20.9225 28.1507 20.9227 27.8854 20.921C27.8856 20.9852 27.886 21.0494 27.8863 21.1135V21.1136C27.8875 21.3221 27.8886 21.5307 27.8838 21.7393C27.557 21.472 27.1957 21.2361 26.7936 21.1005ZM24.3866 23.1368C24.7009 22.8577 25.1179 22.7511 25.5247 22.6908C26.3343 22.5677 27.2451 22.9385 27.6597 23.6635C27.8269 23.9572 27.8199 24.2892 27.813 24.6181V24.6181C27.8106 24.7333 27.8082 24.848 27.8133 24.9606C27.8815 25.6519 27.343 26.2617 26.7262 26.4968C25.9808 26.7774 25.0614 26.7963 24.4109 26.2782C23.4359 25.5469 23.4163 23.8782 24.3866 23.1368ZM43.4459 20.9226C42.6354 20.9171 41.7905 21.1593 41.2066 21.744C41.2014 21.6692 41.1966 21.5946 41.1917 21.52C41.1833 21.3914 41.175 21.263 41.1651 21.135C40.5271 21.1271 39.8891 21.1248 39.2511 21.135C39.252 23.0694 39.2518 25.0037 39.2517 26.9381C39.2516 28.3889 39.2515 29.8397 39.2519 31.2905C39.7001 31.3194 40.1495 31.3168 40.5988 31.3143H40.5988C40.8078 31.3132 41.0167 31.312 41.2254 31.314C41.24 30.4177 41.2368 29.521 41.2335 28.6242C41.2324 28.318 41.2313 28.0117 41.2309 27.7054C42.6386 28.8239 44.8794 28.7008 46.1452 27.4178C47.5231 26.036 47.6023 23.5733 46.2753 22.1312C45.577 21.3286 44.5048 20.885 43.4459 20.9226ZM41.3234 23.832C41.5295 23.212 42.1597 22.8421 42.7718 22.7206C43.4028 22.5928 44.1082 22.7519 44.5957 23.1814C45.4218 23.9323 45.4281 25.3753 44.649 26.1614C43.8676 26.9177 42.485 26.9036 41.7082 26.1473C41.3775 25.8549 41.2043 25.3972 41.2333 24.9598C41.2397 24.8445 41.2367 24.7275 41.2336 24.6104C41.2266 24.3454 41.2196 24.0798 41.3234 23.832ZM33.5279 21.019C34.6416 20.7948 35.8604 20.9296 36.83 21.5496C37.5675 21.9948 38.1287 22.7167 38.3795 23.5404C38.7236 24.6228 38.5692 25.8612 37.9249 26.8033C37.2846 27.7525 36.1912 28.334 35.0625 28.443C34.3673 28.49 33.6486 28.4665 32.991 28.2133C31.9015 27.8473 30.9876 26.9483 30.6663 25.8377C30.3214 24.7968 30.4813 23.6055 31.0723 22.6837C31.6194 21.8216 32.5364 21.233 33.5279 21.019ZM33.9942 22.7308C33.7168 22.8099 33.4573 22.9479 33.23 23.1242C32.4431 23.7442 32.2511 24.97 32.8115 25.8001C33.4518 26.8558 35.1041 27.0643 35.9709 26.1802C36.395 25.7907 36.5964 25.2091 36.54 24.6393C36.5878 23.3758 35.1864 22.3577 33.9942 22.7308ZM52.1882 20.9696C51.0478 20.8199 49.8126 20.979 48.8665 21.6758C48.3202 22.11 47.8531 22.7073 47.7606 23.4174C48.0329 23.464 48.3031 23.5229 48.5732 23.5818L48.5732 23.5818C48.9251 23.6586 49.2769 23.7353 49.6339 23.785C49.7883 23.165 50.3259 22.672 50.9569 22.5701C51.3652 22.4995 51.79 22.5207 52.1874 22.6414C52.5346 22.7543 52.7988 23.1344 52.6467 23.4965C52.3635 23.7548 51.9782 23.8329 51.6112 23.9072C51.5638 23.9168 51.5167 23.9264 51.4703 23.9362L51.2792 23.9634C50.3475 24.095 49.3788 24.2318 48.5859 24.7702C47.6054 25.456 47.6015 27.0698 48.5083 27.8191C49.2568 28.4626 50.311 28.5363 51.25 28.4116C51.8998 28.2901 52.5542 28.0088 52.9688 27.4734C52.9712 27.6055 52.9712 27.7376 52.9712 27.8697C52.9712 28.0019 52.9712 28.1342 52.9736 28.2666C53.1165 28.2664 53.2596 28.266 53.4027 28.2655L53.4029 28.2655C53.8566 28.2641 54.3107 28.2626 54.7653 28.2698C54.7671 27.3843 54.7668 26.4991 54.7666 25.6139C54.7664 24.9502 54.7662 24.2864 54.7668 23.6227C54.7739 23.0843 54.5772 22.5599 54.2809 22.1163C53.7997 21.4407 52.983 21.0997 52.1882 20.9696ZM49.7208 26.3338C49.6174 26.0885 49.8173 25.8463 50.0171 25.7256C50.4202 25.5034 50.8739 25.4206 51.3268 25.3378C51.8725 25.2382 52.4169 25.1387 52.8701 24.796C52.8658 24.9036 52.8692 25.0163 52.8727 25.1305V25.1306C52.8845 25.5163 52.8968 25.9198 52.6138 26.2076C52.0667 26.7531 51.2336 26.8535 50.4976 26.8064C50.1919 26.7884 49.7898 26.6826 49.7208 26.3338ZM55.5542 21.1295C55.3435 21.1299 55.1328 21.1303 54.922 21.1303C55.4781 22.292 56.0464 23.448 56.6147 24.604C57.148 25.6886 57.6813 26.7733 58.2045 27.863C57.9473 28.4284 57.6677 28.9835 57.3881 29.5386C57.0926 30.1253 56.7971 30.7119 56.528 31.3108C56.7544 31.3099 56.981 31.3116 57.2076 31.3134C57.7114 31.3172 58.2154 31.3211 58.7187 31.2952C60.3701 27.9108 62.02 24.5264 63.6683 21.1405C62.9276 21.1217 62.1877 21.1248 61.4478 21.1373C60.7377 22.6963 60.019 24.2521 59.2963 25.8048C59.0833 25.3447 58.8679 24.8856 58.6526 24.4266C58.3008 23.6766 57.9491 22.9268 57.6073 22.1727C57.5525 22.0499 57.4922 21.9296 57.4319 21.8093C57.3213 21.5886 57.2108 21.368 57.1347 21.1326C56.6078 21.1276 56.081 21.1286 55.5542 21.1295Z" fill="#010101"/>
</svg>
