<svg width="70" height="50" viewBox="0 0 70 50" fill="none" xmlns="http://www.w3.org/2000/svg">
<rect width="70" height="50" rx="4" fill="#003D79"/>
<path fill-rule="evenodd" clip-rule="evenodd" d="M5.06316 26.4803C5.06316 25.5837 5.04737 24.8312 5 24.1602H6.64337L6.72042 25.3129H6.76653C7.139 24.7038 7.82016 23.9834 9.09074 23.9834C10.0825 23.9834 10.8571 24.5609 11.1819 25.4248H11.2138C11.4776 24.9928 11.7865 24.673 12.1425 24.448C12.5613 24.1444 13.0417 23.9834 13.6615 23.9834C14.9161 23.9834 16.1857 24.8634 16.1857 27.3604V31.9529H14.3268V27.6489C14.3268 26.3528 13.8937 25.5837 12.9802 25.5837C12.3284 25.5837 11.8476 26.0646 11.6475 26.625C11.6005 26.8165 11.5541 27.0567 11.5541 27.2792V31.9529H9.69453V27.4401C9.69453 26.3528 9.2769 25.5837 8.39363 25.5837C7.68089 25.5837 7.20121 26.1607 7.03037 26.7036C6.95237 26.8969 6.92111 27.1203 6.92111 27.3439V31.9529H5.06316V26.4803Z" fill="white"/>
<path fill-rule="evenodd" clip-rule="evenodd" d="M23.4281 30.0817C23.4281 30.7855 23.4591 31.4724 23.5366 31.9539H21.8163L21.6929 31.09H21.6458C21.1813 31.6986 20.3912 32.13 19.4152 32.13C17.8966 32.13 17.0449 30.9947 17.0449 29.8099C17.0449 27.8409 18.733 26.8496 21.5219 26.8654V26.7369C21.5219 26.2246 21.3202 25.377 19.9881 25.377C19.2441 25.377 18.4691 25.6173 17.9582 25.9527L17.5859 24.6736C18.1447 24.3208 19.1216 23.9844 20.3135 23.9844C22.7313 23.9844 23.4281 25.5696 23.4281 27.2651V30.0817ZM21.5683 28.1457C20.2207 28.1134 18.9351 28.4174 18.9351 29.6018C18.9351 30.3691 19.4152 30.7219 20.0197 30.7219C20.7779 30.7219 21.3365 30.2096 21.5064 29.6497C21.5525 29.5057 21.5683 29.3451 21.5683 29.2175V28.1457Z" fill="white"/>
<path fill-rule="evenodd" clip-rule="evenodd" d="M24.7458 26.4803C24.7458 25.5837 24.7288 24.8312 24.6836 24.1602H26.3554L26.4489 25.3283H26.4946C26.8204 24.7209 27.6414 23.9834 28.8961 23.9834C30.2134 23.9834 31.5766 24.8634 31.5766 27.3284V31.9529H29.6713V27.553C29.6713 26.4321 29.2685 25.5837 28.2304 25.5837C27.4712 25.5837 26.9446 26.1439 26.7427 26.7362C26.6818 26.9127 26.6656 27.1533 26.6656 27.3757V31.9529H24.7458V26.4803Z" fill="white"/>
<path fill-rule="evenodd" clip-rule="evenodd" d="M39.8385 21.0293V29.7604C39.8385 30.5604 39.869 31.4261 39.9001 31.9535H38.1958L38.1195 30.7215H38.0879C37.6384 31.5861 36.7229 32.1297 35.6241 32.1297C33.8278 32.1297 32.402 30.5457 32.402 28.1453C32.3862 25.5367 33.9664 23.984 35.7789 23.984C36.8166 23.984 37.5609 24.4327 37.9011 25.0092H37.9326V21.0293H39.8385ZM37.9326 27.408C37.9326 27.2496 37.9166 27.0567 37.8868 26.8972C37.7161 26.129 37.1115 25.5045 36.2439 25.5045C35.02 25.5045 34.3382 26.6253 34.3382 28.0816C34.3382 29.5054 35.02 30.5457 36.2284 30.5457C37.0027 30.5457 37.6848 30.0018 37.8705 29.1539C37.9166 28.9771 37.9326 28.7853 37.9326 28.5766V27.408Z" fill="white"/>
<path fill-rule="evenodd" clip-rule="evenodd" d="M41.1851 31.9534H43.1081V24.1611H41.1851V31.9534Z" fill="white"/>
<path fill-rule="evenodd" clip-rule="evenodd" d="M44.4545 26.6724C44.4545 25.6167 44.4384 24.8635 44.3921 24.1601H46.0501L46.1108 25.6478H46.175C46.5462 24.5437 47.4295 24.1601 48.2348 24.1601C48.4203 24.1601 48.5286 24.1273 48.684 24.1601V25.8889C48.5286 25.8569 48.3586 25.8249 48.1261 25.8249C47.2122 25.8249 46.592 26.4324 46.4218 27.312C46.3917 27.4881 46.3604 27.6971 46.3604 27.9221V31.9533H44.4545V26.6724Z" fill="white"/>
<path fill-rule="evenodd" clip-rule="evenodd" d="M49.5674 31.9534H51.4875V24.1611H49.5674V31.9534Z" fill="white"/>
<path fill-rule="evenodd" clip-rule="evenodd" d="M49.1127 14.7396C47.9593 15.4295 45.2388 17.0412 44.2232 17.6414C43.6042 17.9671 42.1707 18.1093 41.3599 16.98C41.3454 16.9597 40.2815 15.5866 40.2381 15.5349C40.2076 15.4984 39.5198 14.4446 37.9873 14.4117C37.7609 14.4061 36.6351 14.3999 35.5366 15.0448C34.0766 15.9064 30.6809 17.9116 30.6809 17.9116C30.6799 17.9116 30.6799 17.9134 30.6782 17.9134C29.2824 18.7383 28.1948 19.3806 28.1948 19.3806L29.4798 21.0107C30.0809 21.7816 31.4364 22.3781 32.6119 21.681C32.6119 21.681 36.9555 19.083 36.9714 19.0755C38.8499 18.0113 40.2994 18.0113 41.2614 18.4073C42.1249 18.7842 42.8762 19.7233 42.8762 19.7233C42.8762 19.7233 43.858 20.98 44.0312 21.1999C44.5898 21.9102 45.5145 21.6311 45.5145 21.6311C45.5145 21.6311 45.8571 21.591 46.3736 21.2743C46.3736 21.2743 50.5808 18.7545 50.5835 18.7537C51.9195 17.9441 53.1447 17.7929 53.7709 17.8524C55.7323 18.0366 56.3416 19.4519 57.192 20.4392C57.6929 21.02 58.1448 21.3498 58.8359 21.3331C59.29 21.3232 59.803 21.0388 59.8786 20.9874L64.9167 17.9842C64.9167 17.9842 64.3998 17.18 63.3411 15.9288C62.3936 14.8124 61.3871 15.3175 60.5847 15.728C60.2476 15.9002 59.0261 16.7395 57.816 17.325C56.9538 17.742 55.7152 17.6166 55.0365 16.7502C54.9959 16.6976 53.8977 15.3243 53.7823 15.1554C53.3391 14.5819 52.4743 14.0684 51.366 14.0684C50.6921 14.0684 49.9275 14.2582 49.1127 14.7396Z" fill="url(#paint0_linear_473_550)"/>
<defs>
<linearGradient id="paint0_linear_473_550" x1="28.1948" y1="21.9897" x2="64.9167" y2="21.9897" gradientUnits="userSpaceOnUse">
<stop stop-color="#FFCA06"/>
<stop offset="0.330844" stop-color="#FBAA18"/>
<stop offset="0.694742" stop-color="#FFC907"/>
<stop offset="1" stop-color="#FAA619"/>
</linearGradient>
</defs>
</svg>
